<svg width="202" height="182" viewBox="0 0 202 182" fill="none" xmlns="http://www.w3.org/2000/svg">
<path id="Vector" d="M118.14 119.821C126.935 117.888 133.677 114.086 137.962 111.17C140.293 112.164 146.28 114.283 153.481 112C158.576 110.383 162.078 107.259 163.905 105.348C163.32 105.938 159.125 110.34 159.278 117.396C159.305 118.63 159.53 123.262 162.519 126.965C165.687 130.908 170.711 132.241 175.49 130.569C179.334 129.455 187.193 126.473 194.016 118.095C197.464 113.868 199.624 109.52 200.966 106.178C201.722 103.764 201.326 101.175 200.038 99.7988C198.229 97.8872 194.601 98.3132 192.63 101.743C192.198 102.377 191.559 103.403 191.01 104.791C189.713 108.057 190.172 110.045 189.155 112.83C188.714 114.032 187.886 115.714 186.149 117.396C183.34 119.318 180.378 118.445 179.46 116.457C178.677 114.764 179.523 112.623 179.667 112.273C183.781 103.698 187.751 97.7343 190.785 93.7037C190.785 93.7037 194.844 88.3076 198.247 79.58C199.057 77.5046 199.768 75.3528 199.12 73.19C198.13 69.8693 194.565 68.6897 193.098 68.1981C189.425 66.9856 186.194 68.0233 184.528 68.7552C179.928 76.3795 175.77 82.6167 172.484 87.3245C162.618 101.47 158.477 105.009 153.499 105.894C150.528 106.418 147.981 105.872 146.325 105.337C151.312 101.579 161.097 93.0483 167.857 77.6248C172.241 67.6083 173.771 58.3236 174.338 52.1301C174.59 48.023 174.644 39.1753 170.63 29.6831C164.994 16.3459 155.2 10.8952 152.338 9.45338C147.18 6.85367 140.806 4.26488 133.353 2.5281C120.003 -0.585 108.499 0.267005 100.469 1.69794C93.1328 3.93719 84.5271 7.2469 75.2282 12.2279C66.2534 17.034 58.6828 22.3099 52.5346 27.1926C46.8094 32.0971 37.5826 41.3271 30.0751 56.2919C23.4407 69.5089 20.8032 81.8848 19.6509 89.826C19.5789 93.8457 19.867 103.371 24.746 113.387C29.769 123.699 36.8264 128.712 39.797 130.569C41.5524 131.345 43.9109 132.142 46.7464 132.514C49.9331 132.918 52.6426 132.634 54.623 132.241C57.6386 131.094 59.9071 128.21 60.4112 124.758C61.0773 120.214 58.6018 115.342 54.389 113.671C50.8783 112.459 46.6384 110.569 42.1195 107.576C39.2479 105.675 36.7814 103.666 34.711 101.754C33.6128 98.5098 32.4785 94.1952 31.9294 89.0067C31.0563 80.6505 32.1005 73.7143 33.0907 69.3341C36.7724 60.5519 44.2439 45.7729 58.0977 33.3095C80.3232 13.3202 104.169 12.6102 112.28 12.7959C116.907 13.0799 123.514 14.1613 130.805 17.7877C135.261 20.0051 138.889 22.6158 141.689 24.997C143.552 27.848 146.793 33.6045 148.17 41.9061C149.394 49.2792 148.602 55.3852 147.936 58.8151C146.307 64.8228 143.579 72.7094 138.907 80.9891C135.468 87.0733 131.859 91.8249 128.717 95.3968C124.315 90.0335 119.913 84.6811 115.52 79.3179C118.104 70.1206 122.38 58.3891 129.644 46.3409C133.119 40.5734 136.702 35.7017 140.068 31.6492C140.212 30.5023 140.275 28.5907 139.375 26.9413C137.8 24.0686 133.848 22.9872 129.878 24.997C126.16 27.979 122.146 31.6274 118.068 36.084C109.714 45.2267 103.935 54.6862 100.01 62.4088C97.4717 59.5142 91.8365 53.8997 83.2128 51.3546C76.6505 49.4212 71.0783 50.0766 67.8197 50.7647C66.2264 51.4201 57.6476 55.1559 53.2277 66.2866C49.2849 76.2048 51.2924 85.3693 51.8415 87.6304C52.7776 91.2896 55.2621 99.1871 61.5634 106.2C67.4776 112.775 73.7609 115.233 76.8485 116.173C75.6333 119.176 73.8509 123.404 71.5194 128.363C65.0831 142.06 59.538 153.628 49.519 163.284C45.9633 166.703 42.7946 168.975 40.9493 170.209C35.3681 173.323 29.0218 172.58 24.737 168.265C20.7852 164.3 20.038 158.762 19.876 157.178C20.2361 153.071 20.4161 148.21 20.1641 142.781C19.921 137.593 19.3269 132.994 18.6247 129.106C18.0216 128.101 16.2393 125.435 13.1606 124.485C9.41588 123.327 5.25704 125.141 2.47547 129.106C1.24222 132.754 -1.3323 141.853 0.891152 152.754C4.69892 171.444 19.2999 179.046 21.0372 179.92C24.4489 180.663 28.4997 181.231 33.0817 181.307C38.4468 181.384 43.1457 180.75 46.9715 179.92C58.1157 174.808 65.4972 168.09 70.0431 163.12C77.4966 154.961 82.5557 145.752 89.8111 132.525C92.5927 127.456 94.7801 123.131 96.2924 120.05C101.243 121.033 108.967 121.853 118.149 119.832L118.14 119.821ZM79.6031 108.679C76.6775 107.609 68.3148 104.048 62.9317 93.9877C62.1305 92.4803 54.425 77.7449 59.691 69.3232C64.7501 61.2182 78.0007 65.085 81.1694 66.0135C87.2636 67.794 91.7195 71.2457 94.4201 73.758C89.4781 85.4021 84.5361 97.0352 79.6031 108.679ZM111.56 90.8527L123.136 101.153C120.696 103.425 117.384 106.091 113.18 108.406C108.76 110.831 104.736 112.12 101.604 112.841C104.925 105.512 108.238 98.1822 111.56 90.8637V90.8527Z" fill="white"/>
</svg>
